<mxfile host="app.diagrams.net" modified="2020-11-24T15:37:52.176Z" agent="5.0 (Windows NT 10.0; Win64; x64) AppleWebKit/537.36 (KHTML, like Gecko) Chrome/87.0.4280.66 Safari/537.36" etag="muMs7Lytp6YXzzwPR-c_" version="13.10.2" type="github">
  <diagram id="XdgdShEVCipSYHLfoWi3" name="Page-1">
    <mxGraphModel dx="1422" dy="794" grid="1" gridSize="10" guides="1" tooltips="1" connect="1" arrows="1" fold="1" page="1" pageScale="1" pageWidth="850" pageHeight="1100" math="0" shadow="0">
      <root>
        <mxCell id="0" />
        <mxCell id="1" parent="0" />
        <mxCell id="w8FoOpRMO-HGbwdtgxD_-1" value="alvin.regions" style="shape=table;startSize=30;container=1;collapsible=1;childLayout=tableLayout;fixedRows=1;rowLines=0;fontStyle=1;align=center;resizeLast=1;" vertex="1" parent="1">
          <mxGeometry x="530" y="500" width="180" height="100" as="geometry" />
        </mxCell>
        <mxCell id="w8FoOpRMO-HGbwdtgxD_-2" value="" style="shape=partialRectangle;collapsible=0;dropTarget=0;pointerEvents=0;fillColor=none;top=0;left=0;bottom=1;right=0;points=[[0,0.5],[1,0.5]];portConstraint=eastwest;strokeColor=none;" vertex="1" parent="w8FoOpRMO-HGbwdtgxD_-1">
          <mxGeometry y="30" width="180" height="30" as="geometry" />
        </mxCell>
        <mxCell id="w8FoOpRMO-HGbwdtgxD_-3" value="pk" style="shape=partialRectangle;connectable=0;fillColor=none;top=0;left=0;bottom=0;right=0;fontStyle=1;overflow=hidden;" vertex="1" parent="w8FoOpRMO-HGbwdtgxD_-2">
          <mxGeometry width="30" height="30" as="geometry" />
        </mxCell>
        <mxCell id="w8FoOpRMO-HGbwdtgxD_-4" value="region_id" style="shape=partialRectangle;connectable=0;fillColor=none;top=0;left=0;bottom=0;right=0;align=left;spacingLeft=6;fontStyle=5;overflow=hidden;" vertex="1" parent="w8FoOpRMO-HGbwdtgxD_-2">
          <mxGeometry x="30" width="150" height="30" as="geometry" />
        </mxCell>
        <mxCell id="w8FoOpRMO-HGbwdtgxD_-5" value="" style="shape=partialRectangle;collapsible=0;dropTarget=0;pointerEvents=0;fillColor=none;top=0;left=0;bottom=0;right=0;points=[[0,0.5],[1,0.5]];portConstraint=eastwest;" vertex="1" parent="w8FoOpRMO-HGbwdtgxD_-1">
          <mxGeometry y="60" width="180" height="30" as="geometry" />
        </mxCell>
        <mxCell id="w8FoOpRMO-HGbwdtgxD_-6" value="" style="shape=partialRectangle;connectable=0;fillColor=none;top=0;left=0;bottom=0;right=0;editable=1;overflow=hidden;" vertex="1" parent="w8FoOpRMO-HGbwdtgxD_-5">
          <mxGeometry width="30" height="30" as="geometry" />
        </mxCell>
        <mxCell id="w8FoOpRMO-HGbwdtgxD_-7" value="region_name" style="shape=partialRectangle;connectable=0;fillColor=none;top=0;left=0;bottom=0;right=0;align=left;spacingLeft=6;overflow=hidden;" vertex="1" parent="w8FoOpRMO-HGbwdtgxD_-5">
          <mxGeometry x="30" width="150" height="30" as="geometry" />
        </mxCell>
        <mxCell id="w8FoOpRMO-HGbwdtgxD_-14" value="alvin.countries" style="shape=table;startSize=30;container=1;collapsible=1;childLayout=tableLayout;fixedRows=1;rowLines=0;fontStyle=1;align=center;resizeLast=1;" vertex="1" parent="1">
          <mxGeometry x="530" y="300" width="180" height="130" as="geometry" />
        </mxCell>
        <mxCell id="w8FoOpRMO-HGbwdtgxD_-15" value="" style="shape=partialRectangle;collapsible=0;dropTarget=0;pointerEvents=0;fillColor=none;top=0;left=0;bottom=1;right=0;points=[[0,0.5],[1,0.5]];portConstraint=eastwest;strokeColor=none;" vertex="1" parent="w8FoOpRMO-HGbwdtgxD_-14">
          <mxGeometry y="30" width="180" height="30" as="geometry" />
        </mxCell>
        <mxCell id="w8FoOpRMO-HGbwdtgxD_-16" value="pk" style="shape=partialRectangle;connectable=0;fillColor=none;top=0;left=0;bottom=0;right=0;fontStyle=1;overflow=hidden;" vertex="1" parent="w8FoOpRMO-HGbwdtgxD_-15">
          <mxGeometry width="30" height="30" as="geometry" />
        </mxCell>
        <mxCell id="w8FoOpRMO-HGbwdtgxD_-17" value="country_id" style="shape=partialRectangle;connectable=0;fillColor=none;top=0;left=0;bottom=0;right=0;align=left;spacingLeft=6;fontStyle=5;overflow=hidden;" vertex="1" parent="w8FoOpRMO-HGbwdtgxD_-15">
          <mxGeometry x="30" width="150" height="30" as="geometry" />
        </mxCell>
        <mxCell id="w8FoOpRMO-HGbwdtgxD_-18" value="" style="shape=partialRectangle;collapsible=0;dropTarget=0;pointerEvents=0;fillColor=none;top=0;left=0;bottom=0;right=0;points=[[0,0.5],[1,0.5]];portConstraint=eastwest;" vertex="1" parent="w8FoOpRMO-HGbwdtgxD_-14">
          <mxGeometry y="60" width="180" height="30" as="geometry" />
        </mxCell>
        <mxCell id="w8FoOpRMO-HGbwdtgxD_-19" value="" style="shape=partialRectangle;connectable=0;fillColor=none;top=0;left=0;bottom=0;right=0;editable=1;overflow=hidden;" vertex="1" parent="w8FoOpRMO-HGbwdtgxD_-18">
          <mxGeometry width="30" height="30" as="geometry" />
        </mxCell>
        <mxCell id="w8FoOpRMO-HGbwdtgxD_-20" value="country_name" style="shape=partialRectangle;connectable=0;fillColor=none;top=0;left=0;bottom=0;right=0;align=left;spacingLeft=6;overflow=hidden;" vertex="1" parent="w8FoOpRMO-HGbwdtgxD_-18">
          <mxGeometry x="30" width="150" height="30" as="geometry" />
        </mxCell>
        <mxCell id="w8FoOpRMO-HGbwdtgxD_-21" value="" style="shape=partialRectangle;collapsible=0;dropTarget=0;pointerEvents=0;fillColor=none;top=0;left=0;bottom=0;right=0;points=[[0,0.5],[1,0.5]];portConstraint=eastwest;" vertex="1" parent="w8FoOpRMO-HGbwdtgxD_-14">
          <mxGeometry y="90" width="180" height="30" as="geometry" />
        </mxCell>
        <mxCell id="w8FoOpRMO-HGbwdtgxD_-22" value="" style="shape=partialRectangle;connectable=0;fillColor=none;top=0;left=0;bottom=0;right=0;editable=1;overflow=hidden;" vertex="1" parent="w8FoOpRMO-HGbwdtgxD_-21">
          <mxGeometry width="30" height="30" as="geometry" />
        </mxCell>
        <mxCell id="w8FoOpRMO-HGbwdtgxD_-23" value="region_id" style="shape=partialRectangle;connectable=0;fillColor=none;top=0;left=0;bottom=0;right=0;align=left;spacingLeft=6;overflow=hidden;" vertex="1" parent="w8FoOpRMO-HGbwdtgxD_-21">
          <mxGeometry x="30" width="150" height="30" as="geometry" />
        </mxCell>
        <mxCell id="w8FoOpRMO-HGbwdtgxD_-27" value="" style="edgeStyle=entityRelationEdgeStyle;fontSize=12;html=1;endArrow=ERmany;entryX=1;entryY=0.5;entryDx=0;entryDy=0;" edge="1" parent="1" target="w8FoOpRMO-HGbwdtgxD_-21">
          <mxGeometry width="100" height="100" relative="1" as="geometry">
            <mxPoint x="710" y="560" as="sourcePoint" />
            <mxPoint x="810" y="460" as="targetPoint" />
          </mxGeometry>
        </mxCell>
      </root>
    </mxGraphModel>
  </diagram>
</mxfile>
